<?xml version="1.0" encoding="UTF-8"?>
<!DOCTYPE svg PUBLIC "-//W3C//DTD SVG 1.1//EN" "http://www.w3.org/Graphics/SVG/1.1/DTD/svg11.dtd">
<svg xmlns="http://www.w3.org/2000/svg" version="1.1" width="205px" height="80px" style="shape-rendering:geometricPrecision; text-rendering:geometricPrecision; image-rendering:optimizeQuality; fill-rule:evenodd; clip-rule:evenodd" xmlns:xlink="http://www.w3.org/1999/xlink">
<g><path style="opacity:1" fill="#fafbfb" d="M -0.5,-0.5 C 67.8333,-0.5 136.167,-0.5 204.5,-0.5C 204.5,26.1667 204.5,52.8333 204.5,79.5C 136.167,79.5 67.8333,79.5 -0.5,79.5C -0.5,52.8333 -0.5,26.1667 -0.5,-0.5 Z"/></g>
<g><path style="opacity:1" fill="#1d3553" d="M 12.5,1.5 C 14.1667,1.5 15.8333,1.5 17.5,1.5C 17.5,6.16667 17.5,10.8333 17.5,15.5C 20.1667,15.5 22.8333,15.5 25.5,15.5C 27.4486,23.5204 24.4486,27.8538 16.5,28.5C 16.6602,30.1992 16.4935,31.8659 16,33.5C 12.3333,37.1667 8.66667,40.8333 5,44.5C 4.33333,32.1667 4.33333,19.8333 5,7.5C 7.11411,4.87922 9.61411,2.87922 12.5,1.5 Z"/></g>
<g><path style="opacity:1" fill="#35b1f5" d="M 61.5,7.5 C 68.8546,7.22065 73.0212,10.554 74,17.5C 70.4651,13.1056 66.2985,9.77227 61.5,7.5 Z"/></g>
<g><path style="opacity:1" fill="#2563b3" d="M 61.5,11.5 C 65.34,12.2524 68.34,14.2524 70.5,17.5C 70.1924,18.3081 69.6924,18.9747 69,19.5C 67.5897,16.2108 65.0897,14.5441 61.5,14.5C 61.5,13.5 61.5,12.5 61.5,11.5 Z"/></g>
<g><path style="opacity:1" fill="#f9c024" d="M 58.5,36.5 C 61.5,39.1667 64.5,41.8333 67.5,44.5C 55.4397,59.8588 43.1063,60.1921 30.5,45.5C 28.2897,39.6341 27.9564,33.6341 29.5,27.5C 38.9819,13.5934 50.3152,11.9268 63.5,22.5C 60.8333,25.8333 57.8333,28.8333 54.5,31.5C 46.1001,27.0018 41.9335,29.3351 42,38.5C 44.2063,42.1252 47.373,43.2919 51.5,42C 53.4412,39.5464 55.7746,37.713 58.5,36.5 Z"/></g>
<g><path style="opacity:1" fill="#1e3654" d="M 71.5,69.5 C 72.8333,69.5 74.1667,69.5 75.5,69.5C 75.5,68.1667 75.5,66.8333 75.5,65.5C 74.1667,65.5 72.8333,65.5 71.5,65.5C 71.5,63.8333 71.5,62.1667 71.5,60.5C 70.1667,60.5 68.8333,60.5 67.5,60.5C 67.3359,57.8127 67.5026,55.146 68,52.5C 71.8333,48.6667 75.6667,44.8333 79.5,41C 82.6516,42.1859 85.9849,42.5193 89.5,42C 93.9019,38.9917 94.5686,35.325 91.5,31C 88.634,29.5432 85.634,29.2099 82.5,30C 77.6313,35.0365 72.6313,39.8698 67.5,44.5C 64.5,41.8333 61.5,39.1667 58.5,36.5C 64.4126,27.7571 72.0793,20.9237 81.5,16C 93.4184,14.5411 101.585,19.3744 106,30.5C 106.928,48.4046 98.4285,56.7379 80.5,55.5C 80.666,60.8437 80.4994,66.1771 80,71.5C 76.7629,75.6 72.5963,77.6 67.5,77.5C 67.5,76.5 67.5,75.5 67.5,74.5C 69.674,74.9202 71.674,74.9202 73.5,74.5C 71.9951,73.1585 71.3285,71.4918 71.5,69.5 Z"/></g>
<g><path style="opacity:1" fill="#0c2142" d="M 122.5,17.5 C 120.958,18.1635 119.291,18.8302 117.5,19.5C 118.729,20.2811 120.062,20.7811 121.5,21C 120.552,21.4828 119.552,21.6495 118.5,21.5C 118.5,22.5 118.5,23.5 118.5,24.5C 120.099,24.2322 121.432,24.5655 122.5,25.5C 120.5,25.5 118.5,25.5 116.5,25.5C 116.5,23.1667 116.5,20.8333 116.5,18.5C 115.5,18.5 114.5,18.5 113.5,18.5C 113.167,27.8333 112.833,27.8333 112.5,18.5C 113.681,17.364 117.014,17.0307 122.5,17.5 Z"/></g>
<g><path style="opacity:1" fill="#1b3250" d="M 60.5,16.5 C 63.9768,16.6118 65.4768,18.2785 65,21.5C 62.7997,20.3492 61.2997,18.6825 60.5,16.5 Z"/></g>
<g><path style="opacity:1" fill="#a4adba" d="M 122.5,17.5 C 122.833,17.5 123.167,17.5 123.5,17.5C 123.337,19.8568 123.503,22.1902 124,24.5C 124.483,23.552 124.649,22.552 124.5,21.5C 125.552,21.3505 126.552,21.5172 127.5,22C 127.884,22.9506 128.217,23.7839 128.5,24.5C 126.735,25.4614 124.735,25.7947 122.5,25.5C 121.432,24.5655 120.099,24.2322 118.5,24.5C 118.5,23.5 118.5,22.5 118.5,21.5C 119.552,21.6495 120.552,21.4828 121.5,21C 120.062,20.7811 118.729,20.2811 117.5,19.5C 119.291,18.8302 120.958,18.1635 122.5,17.5 Z"/></g>
<g><path style="opacity:1" fill="#283b59" d="M 130.5,17.5 C 131.735,17.7214 132.735,18.3881 133.5,19.5C 134.258,18.1886 135.258,17.6886 136.5,18C 134.813,19.913 134.313,22.0797 135,24.5C 137.451,15.2319 139.784,15.2319 142,24.5C 142.497,22.1902 142.663,19.8568 142.5,17.5C 145.05,17.5608 146.55,18.8941 147,21.5C 147.219,20.062 147.719,18.7287 148.5,17.5C 149.833,20.1667 149.833,22.8333 148.5,25.5C 146.854,24.2214 145.687,22.5547 145,20.5C 144.506,22.1341 144.34,23.8008 144.5,25.5C 142.334,25.4211 140.334,24.7545 138.5,23.5C 136.666,24.7545 134.666,25.4211 132.5,25.5C 132.416,22.6726 131.75,20.006 130.5,17.5 Z"/></g>
<g><path style="opacity:1" fill="#cfd4da" d="M 137.5,20.5 C 139.337,20.6395 139.67,21.3061 138.5,22.5C 137.702,22.0431 137.369,21.3764 137.5,20.5 Z"/></g>
<g><path style="opacity:1" fill="#082041" d="M 123.5,17.5 C 125.467,17.2606 127.301,17.5939 129,18.5C 129.168,20.5176 129.002,22.5176 128.5,24.5C 128.217,23.7839 127.884,22.9506 127.5,22C 126.552,21.5172 125.552,21.3505 124.5,21.5C 124.649,22.552 124.483,23.552 124,24.5C 123.503,22.1902 123.337,19.8568 123.5,17.5 Z"/></g>
<g><path style="opacity:1" fill="#fefefe" d="M 124.5,18.5 C 125.675,18.281 126.675,18.6143 127.5,19.5C 125.948,20.7979 124.948,20.4646 124.5,18.5 Z"/></g>
<g><path style="opacity:1" fill="#203755" d="M 29.5,27.5 C 27.9564,33.6341 28.2897,39.6341 30.5,45.5C 27.0359,48.4625 23.7025,51.6291 20.5,55C 15.0024,56.6179 10.6691,55.1179 7.5,50.5C 14.1532,42.1802 21.4866,34.5135 29.5,27.5 Z"/></g>
<g><path style="opacity:1" fill="#152a4a" d="M 130.5,38.5 C 130.5,36.8333 130.5,35.1667 130.5,33.5C 131.5,33.5 132.5,33.5 133.5,33.5C 133.664,36.1873 133.497,38.854 133,41.5C 132.667,39.8333 132.333,38.1667 132,36.5C 131.722,37.4158 131.222,38.0825 130.5,38.5 Z"/></g>
<g><path style="opacity:1" fill="#213352" d="M 160.5,33.5 C 162.75,33.1814 164.75,33.6814 166.5,35C 165.451,35.4922 164.451,35.3256 163.5,34.5C 160.833,36.5 160.833,38.5 163.5,40.5C 164.478,40.0233 165.311,39.3567 166,38.5C 166.617,39.4491 166.451,40.2825 165.5,41C 159.788,41.4333 158.122,38.9333 160.5,33.5 Z"/></g>
<g><path style="opacity:1" fill="#2f3f5d" d="M 172.5,34.5 C 172.936,36.7463 173.603,38.9129 174.5,41C 173.223,41.1274 172.057,40.6274 171,39.5C 169.739,39.7591 168.739,40.4258 168,41.5C 167.748,39.0687 168.248,36.7354 169.5,34.5C 170.425,33.4376 171.425,33.4376 172.5,34.5 Z"/></g>
<g><path style="opacity:1" fill="#2f415e" d="M 130.5,38.5 C 129.947,42.4557 129.114,42.4557 128,38.5C 127.418,41.6677 126.418,42.001 125,39.5C 122.541,42.1003 120.041,42.1003 117.5,39.5C 111.057,42.8957 109.057,41.0623 111.5,34C 113.259,33.2025 114.926,33.3691 116.5,34.5C 115.033,34.723 113.533,35.0563 112,35.5C 111.1,40.4465 112.6,41.4465 116.5,38.5C 118.046,33.4785 120.879,32.4785 125,35.5C 125.388,34.572 126.055,33.9054 127,33.5C 128.623,34.921 129.79,36.5876 130.5,38.5 Z"/></g>
<g><path style="opacity:1" fill="#f7f8f9" d="M 120.5,34.5 C 122.484,34.484 123.484,35.484 123.5,37.5C 122.167,41.5 120.833,41.5 119.5,37.5C 119.685,36.4163 120.018,35.4163 120.5,34.5 Z"/></g>
<g><path style="opacity:1" fill="#1a2c4d" d="M 172.5,34.5 C 178.124,34.3327 183.457,34.3327 188.5,34.5C 190.525,39.635 188.858,41.8017 183.5,41C 182.874,40.2496 182.374,39.4162 182,38.5C 181.751,39.624 181.251,40.624 180.5,41.5C 179.526,39.2573 179.192,36.924 179.5,34.5C 178.5,34.5 177.5,34.5 176.5,34.5C 176.167,43.8333 175.833,43.8333 175.5,34.5C 174.5,34.5 173.5,34.5 172.5,34.5 Z"/></g>
<g><path style="opacity:1" fill="#e8eaed" d="M 184.5,34.5 C 185.5,34.5 186.5,34.5 187.5,34.5C 187.5,36.5 187.5,38.5 187.5,40.5C 183.556,40.1156 182.556,38.1156 184.5,34.5 Z"/></g>
<g><path style="opacity:1" fill="#0d2445" d="M 190.5,33.5 C 192.453,34.6258 193.953,36.2925 195,38.5C 195.333,36.8333 195.667,35.1667 196,33.5C 196.818,36.2272 196.652,38.8938 195.5,41.5C 194.333,39.8333 193.167,38.1667 192,36.5C 191.667,38.1667 191.333,39.8333 191,41.5C 190.503,38.854 190.336,36.1873 190.5,33.5 Z"/></g>
<g><path style="opacity:1" fill="#0e2546" d="M 150.5,33.5 C 152.433,34.6417 153.933,36.3083 155,38.5C 155.333,36.8333 155.667,35.1667 156,33.5C 157.159,41.7959 155.826,42.7959 152,36.5C 151.667,38.1667 151.333,39.8333 151,41.5C 150.503,38.854 150.336,36.1873 150.5,33.5 Z"/></g>
<g><path style="opacity:1" fill="#2a3c5a" d="M 134.5,33.5 C 135.5,33.5 136.5,33.5 137.5,33.5C 137.344,39.3125 138.011,39.6459 139.5,34.5C 141.045,33.5481 142.712,33.2148 144.5,33.5C 144.244,35.7925 144.577,37.9592 145.5,40C 145.833,40.1667 146.167,40.3333 146.5,40.5C 148.299,31.2329 149.132,31.2329 149,40.5C 146.733,41.9348 144.733,41.6015 143,39.5C 141.582,42.001 140.582,41.6677 140,38.5C 139.751,39.624 139.251,40.624 138.5,41.5C 137.194,40.0878 136.36,38.4211 136,36.5C 135.667,38.1667 135.333,39.8333 135,41.5C 134.503,38.854 134.336,36.1873 134.5,33.5 Z"/></g>
<g><path style="opacity:1" fill="#112546" d="M 124.5,49.5 C 130.313,49.062 131.98,51.562 129.5,57C 123.593,57.7465 121.927,55.2465 124.5,49.5 Z"/></g>
<g><path style="opacity:1" fill="#e7e9ed" d="M 125.5,50.5 C 129.071,50.4077 130.238,52.0743 129,55.5C 126.915,56.6469 125.415,55.9803 124.5,53.5C 125.127,52.5832 125.461,51.5832 125.5,50.5 Z"/></g>
<g><path style="opacity:1" fill="#0d2143" d="M 116.5,49.5 C 118.5,49.5 120.5,49.5 122.5,49.5C 122.664,52.1873 122.497,54.854 122,57.5C 121.517,56.552 121.351,55.552 121.5,54.5C 120.167,54.5 118.833,54.5 117.5,54.5C 117.649,55.552 117.483,56.552 117,57.5C 116.503,54.854 116.336,52.1873 116.5,49.5 Z"/></g>
<g><path style="opacity:1" fill="#a9b2be" d="M 117.5,50.5 C 122.833,51.5 122.833,52.5 117.5,53.5C 117.5,52.5 117.5,51.5 117.5,50.5 Z"/></g>
<g><path style="opacity:1" fill="#1d3150" d="M 141.5,49.5 C 144.044,49.1043 146.211,49.771 148,51.5C 149.87,50.2565 152.036,49.5899 154.5,49.5C 156.5,49.6667 158.5,49.8333 160.5,50C 160.588,51.9461 160.921,53.9461 161.5,56C 161.167,56.5 160.833,57 160.5,57.5C 159.614,56.675 159.281,55.675 159.5,54.5C 158.5,54.5 157.5,54.5 156.5,54.5C 156.5,55.5 156.5,56.5 156.5,57.5C 153.289,57.988 150.456,57.3213 148,55.5C 146.211,57.229 144.044,57.8957 141.5,57.5C 141.5,54.8333 141.5,52.1667 141.5,49.5 Z"/></g>
<g><path style="opacity:1" fill="#cad0d7" d="M 142.5,50.5 C 146.35,50.7007 147.35,52.5341 145.5,56C 144.552,56.4828 143.552,56.6495 142.5,56.5C 142.5,54.5 142.5,52.5 142.5,50.5 Z"/></g>
<g><path style="opacity:1" fill="#d4d9df" d="M 156.5,50.5 C 157.5,50.5 158.5,50.5 159.5,50.5C 159.5,51.5 159.5,52.5 159.5,53.5C 158.5,53.5 157.5,53.5 156.5,53.5C 156.5,52.5 156.5,51.5 156.5,50.5 Z"/></g>
<g><path style="opacity:1" fill="#dbdee3" d="M 149.5,50.5 C 151.167,50.5 152.833,50.5 154.5,50.5C 154.5,52.5 154.5,54.5 154.5,56.5C 152.833,56.5 151.167,56.5 149.5,56.5C 149.5,55.5 149.5,54.5 149.5,53.5C 150.873,53.6567 152.207,53.49 153.5,53C 151.563,52.8784 150.23,52.045 149.5,50.5 Z"/></g>
<g><path style="opacity:1" fill="#2a3d5b" d="M 109.5,49.5 C 111.199,49.3398 112.866,49.5065 114.5,50C 113.552,50.4828 112.552,50.6495 111.5,50.5C 111.5,51.5 111.5,52.5 111.5,53.5C 115.5,53.8333 115.5,54.1667 111.5,54.5C 111.719,55.675 111.386,56.675 110.5,57.5C 109.52,54.9135 109.187,52.2469 109.5,49.5 Z"/></g>
<g><path style="opacity:1" fill="#283a58" d="M 131.5,49.5 C 133.284,50.5738 134.451,52.2404 135,54.5C 135.129,50.882 136.962,49.2153 140.5,49.5C 140.203,59.209 139.37,59.5423 138,50.5C 135.229,59.8722 133.063,59.5389 131.5,49.5 Z"/></g>
<g><path style="opacity:1" fill="#d3d6d9" d="M 73.5,58.5 C 75.337,58.6395 75.6704,59.3061 74.5,60.5C 73.7025,60.0431 73.3691,59.3764 73.5,58.5 Z"/></g>
<g><path style="opacity:1" fill="#1e62b5" d="M 61.5,58.5 C 63.1667,58.5 64.8333,58.5 66.5,58.5C 66.5,59.8333 66.5,61.1667 66.5,62.5C 64.8333,62.5 63.1667,62.5 61.5,62.5C 61.5,61.1667 61.5,59.8333 61.5,58.5 Z"/></g>
<g><path style="opacity:1" fill="#576478" d="M 19.5,64.5 C 17.2625,65.5366 14.9291,65.7033 12.5,65C 13.8491,64.2276 14.6824,63.0609 15,61.5C 16.3333,62.8333 17.6667,62.8333 19,61.5C 19.4828,62.448 19.6495,63.448 19.5,64.5 Z"/></g>
<g><path style="opacity:1" fill="#48596e" d="M 46.5,61.5 C 47.1577,62.3984 47.8243,63.3984 48.5,64.5C 49.6753,63.1451 50.6753,63.3117 51.5,65C 46.9145,65.1971 42.4145,65.6971 38,66.5C 37.3333,65.1667 37.3333,63.8333 38,62.5C 40.0719,65.0938 42.2385,65.0938 44.5,62.5C 45.944,63.981 46.6106,63.6477 46.5,61.5 Z"/></g>
<g><path style="opacity:1" fill="#27acf0" d="M 57.5,61.5 C 58.5,61.5 59.5,61.5 60.5,61.5C 60.5,62.5 60.5,63.5 60.5,64.5C 59.5,64.5 58.5,64.5 57.5,64.5C 57.5,63.5 57.5,62.5 57.5,61.5 Z"/></g>
<g><path style="opacity:1" fill="#596577" d="M 6.5,63.5 C 8.17885,63.8923 9.84552,64.3923 11.5,65C 9.16667,65.6667 6.83333,65.6667 4.5,65C 5.4158,64.7216 6.08247,64.2216 6.5,63.5 Z"/></g>
<g><path style="opacity:1" fill="#f9f9f9" d="M 71.5,65.5 C 72.8333,65.5 74.1667,65.5 75.5,65.5C 75.5,66.8333 75.5,68.1667 75.5,69.5C 74.1667,69.5 72.8333,69.5 71.5,69.5C 71.5,68.1667 71.5,66.8333 71.5,65.5 Z"/></g>
<g><path style="opacity:1" fill="#768391" d="M 19.5,64.5 C 21.5914,64.6816 23.5914,64.3482 25.5,63.5C 26.8834,66.0756 27.7167,65.7423 28,62.5C 28.8837,64.6406 28.3837,66.3073 26.5,67.5C 24.2404,66.0882 21.9071,65.0882 19.5,64.5 Z"/></g>
<g><path style="opacity:1" fill="#0d2039" d="M 71.5,65.5 C 71.5,66.8333 71.5,68.1667 71.5,69.5C 70.1667,69.5 68.8333,69.5 67.5,69.5C 67.5,68.1667 67.5,66.8333 67.5,65.5C 68.8333,65.5 70.1667,65.5 71.5,65.5 Z"/></g>
<g><path style="opacity:1" fill="#585e75" d="M 4.5,69.5 C 6.16441,70.9488 6.99775,72.9488 7,75.5C 11.5472,77.3032 13.5472,75.6366 13,70.5C 14.5296,77.2432 12.0296,79.2432 5.5,76.5C 4.62578,74.2534 4.29245,71.9201 4.5,69.5 Z"/></g>
<g><path style="opacity:1" fill="#273b55" d="M 52.5,74.5 C 40.1667,74.5 27.8333,74.5 15.5,74.5C 14.6876,66.5241 14.6876,66.1907 15.5,73.5C 23.0429,74.0829 30.3763,73.4162 37.5,71.5C 39.1667,74.1667 40.8333,74.1667 42.5,71.5C 45.7717,72.9987 49.105,73.9987 52.5,74.5 Z"/></g>
<g><path style="opacity:1" fill="#758394" d="M 15.5,74.5 C 27.8333,74.5 40.1667,74.5 52.5,74.5C 49.105,73.9987 45.7717,72.9987 42.5,71.5C 40.8333,74.1667 39.1667,74.1667 37.5,71.5C 30.3763,73.4162 23.0429,74.0829 15.5,73.5C 14.6876,66.1907 14.6876,66.5241 15.5,74.5 Z"/></g>
<g><path style="opacity:1" fill="#4bacec" d="M 59.5,69.5 C 61.7373,70.449 64.0706,71.1156 66.5,71.5C 66.5,73.1667 66.5,74.8333 66.5,76.5C 65.1667,76.5 63.8333,76.5 62.5,76.5C 62.5,75.1667 62.5,73.8333 62.5,72.5C 61.5,72.5 60.5,72.5 59.5,72.5C 59.5,71.5 59.5,70.5 59.5,69.5 Z"/></g>
</svg>
